<?xml version="1.0" encoding="utf-8"?>
<!-- Generator: Adobe Illustrator 19.0.0, SVG Export Plug-In . SVG Version: 6.00 Build 0)  -->
<svg version="1.1" id="Layer_1" xmlns="http://www.w3.org/2000/svg" xmlns:xlink="http://www.w3.org/1999/xlink" x="0px" y="0px"
	 viewBox="0 0 500 500" style="enable-background:new 0 0 500 500;" xml:space="preserve">
<style type="text/css">
	.st0{fill:#00539A;}
</style>
<g id="XMLID_1_">
	<path id="XMLID_2_" class="st0" d="M157.1,250.9h-6.4c0-5.1-3.5-8.2-8.4-8.2c-7.5,0-9.7,6.7-9.7,13.4c0,6.4,3.1,11.8,10.2,11.8
		c4.1,0,7.5-3,7.6-7.4h6.8c-0.2,9.3-8.1,12.3-14.7,12.3c-11.8,0-17.4-7.5-17.4-17.2c0-10.2,5.3-17.7,15.9-17.7c4,0,7.3,1.1,9.6,4.5
		l0.1,0.1v-3.9h6.4L157.1,250.9L157.1,250.9z"/>
	<path id="XMLID_3_" class="st0" d="M184.6,260c0,8-5.3,12.7-12.8,12.7c-7.5,0-12.8-4.7-12.8-12.7c0-8,5.3-12.7,12.8-12.7
		C179.3,247.3,184.6,252,184.6,260 M171.8,267.8c4.3,0,5.7-4,5.7-7.8c0-3.8-1.4-7.8-5.7-7.8c-4.3,0-5.7,4-5.7,7.8
		C166.1,263.8,167.4,267.8,171.8,267.8"/>
	<polygon id="XMLID_6_" class="st0" points="184.7,267.3 188.1,267.3 188.1,242.4 184.7,242.4 184.7,237.8 194.9,237.8 194.9,267.3 
		198.2,267.3 198.2,271.9 184.7,271.9 	"/>
	<polygon id="XMLID_7_" class="st0" points="200.7,267.3 204,267.3 204,242.4 200.7,242.4 200.7,237.8 210.8,237.8 210.8,267.3 
		214.1,267.3 214.1,271.9 200.7,271.9 	"/>
	<path id="XMLID_8_" class="st0" d="M222,261.9c0,3.8,2.2,6.1,6,6.1c2.3,0,4-1,4.7-3.5h6.4c-1.1,5.8-5.8,8.1-11.3,8.1
		c-8.4,0-12.8-5-12.8-13c0-7.5,5.1-12.4,12.7-12.4c5.8,0,10.4,3.3,11.4,9.2c0.3,1.9,0.3,3.7,0.3,5.4L222,261.9L222,261.9z
		 M232.5,257.6c0-3.4-1.7-5.7-5.3-5.7c-3.4,0-5.3,2.5-5.3,5.7H232.5z"/>
	<path id="XMLID_11_" class="st0" d="M270.2,252.6h-3.3v17.1c0,6.1-3.1,11.6-12.7,11.6c-7,0-10.8-2.2-11.1-7.9h7.4
		c0.2,2.9,2.2,3.3,4.4,3.3c3,0,5.2-2.9,5.2-5.9v-2.7c-2.2,2.4-3.9,3.5-8,3.5c-6.4,0-10.2-5.5-10.2-11.6c0-7.1,3.2-12.6,10.9-12.6
		c3.8,0,6.2,1.8,7.8,4.3h0.1V248h9.5L270.2,252.6L270.2,252.6z M254.7,266.7c4.2,0,5.8-3.4,5.8-7.3c0-3.7-1.5-7.2-5.7-7.2
		c-4.3,0-5.9,3.7-5.9,7.5C248.9,263.4,250.8,266.7,254.7,266.7"/>
	<path id="XMLID_14_" class="st0" d="M278.1,261.9c0,3.8,2.2,6.1,6,6.1c2.4,0,4-1,4.7-3.5h6.4c-1.1,5.8-5.8,8.1-11.3,8.1
		c-8.4,0-12.8-5-12.8-13c0-7.5,5.1-12.4,12.7-12.4c5.8,0,10.4,3.3,11.4,9.2c0.3,1.9,0.3,3.7,0.3,5.4L278.1,261.9L278.1,261.9z
		 M288.6,257.6c0-3.4-1.7-5.7-5.3-5.7c-3.4,0-5.3,2.5-5.3,5.7H288.6z"/>
	<path id="XMLID_17_" class="st0" d="M296.9,267.1h4.2v-23.7h-4.2v-4.9h16c6.1,0,13.2,0.2,13.2,8.2c0,4.4-2.3,7-6.8,7.6v0.1
		c4.3,0.2,7.9,3.3,7.9,7.8c0,10.1-9.3,9.8-14.6,9.8h-15.7V267.1z M308.2,252.5h4c3.4,0,7-0.7,7-4.8c0-4-3.6-4.3-6.7-4.3h-4.2
		L308.2,252.5L308.2,252.5z M308.2,267.1h4.7c4.3,0,7.3-0.7,7.3-5.2c0-4.8-3.7-4.8-7.3-4.8h-4.8V267.1L308.2,267.1z"/>
	<path id="XMLID_21_" class="st0" d="M353.9,260c0,8-5.3,12.7-12.8,12.7c-7.5,0-12.8-4.7-12.8-12.7c0-8,5.3-12.7,12.8-12.7
		C348.7,247.3,353.9,252,353.9,260 M341.2,267.8c4.3,0,5.7-4,5.7-7.8c0-3.8-1.4-7.8-5.7-7.8c-4.3,0-5.7,4-5.7,7.8
		C335.4,263.8,336.8,267.8,341.2,267.8"/>
	<path id="XMLID_24_" class="st0" d="M372.1,268.5L372.1,268.5c-2.2,3.2-4.4,4.2-8,4.2c-4.4,0-8.3-2.6-8.3-7.7
		c0-7.9,7.9-8.1,13.8-8.1h2.4v-1.8c0-2.8-2.1-3.7-4.6-3.7c-2.7,0-4.3,1.1-4.5,3.9h-6.4c0.4-6.8,6-8,11.6-8c7.7,0,10.2,3.2,10.2,10.5
		v9.6h3.1v4.6h-9.3L372.1,268.5L372.1,268.5z M368.7,261c-3.5,0-6.6,0.6-6.6,3.8c0,2.3,1.5,3.3,3.6,3.3c4,0,6.3-3,6.2-7.1H368.7z"/>
	<path id="XMLID_27_" class="st0" d="M384,267.3h3.3v-14.7H384V248h9.7v4.6h0.1c1.4-3.1,3.8-5.4,7.4-5.4c1,0,2,0.1,2.9,0.3v5.6
		c-1-0.3-2-0.3-3.1-0.3c-4.5,0-6.6,3.3-6.8,7.5v6.9h4.1v4.6h-14.2L384,267.3L384,267.3z"/>
	<path id="XMLID_28_" class="st0" d="M429.2,267.1h3.3v4.6H423v-4h-0.1c-2.1,3.4-4.2,4.7-8.5,4.7c-6.9,0-10.3-5.9-10.3-12.3
		c0-8.8,4.5-13,10.7-13c4,0,6.3,1.9,7.4,4.2h0.1v-9.1h-3.3v-4.6h10.1V267.1z M422.8,259.4c0-3.9-1.7-7.5-5.9-7.5
		c-4.3,0-5.7,3.9-5.7,7.8c0,5.2,2.1,7.8,5.1,7.8C421.4,267.6,422.8,264.5,422.8,259.4"/>
	<path id="XMLID_31_" class="st0" d="M115.9,239c-0.7-3.3-3.1-5.6-6.4-6.9c0,0-1.6-0.7-2.8-0.9c-1.5-0.4-2.7-0.6-4.2-0.9
		c-2-0.4-7.4-0.9-8.3-0.9c-0.3,0-0.1-0.3,0-0.5c0.3-0.4,0.7-0.9,1-1.3c0.7-0.9,1.2-1.9,1.5-3c0.3-1.2,0.4-2.5,0.3-3.8
		c0-0.5-0.1-0.9-0.3-1.4c-0.1-0.2-0.2-0.5-0.4-0.7c-0.2-0.1-0.5,0-0.7,0c-0.4,0.1-0.8,0.3-1.2,0.5c-2.4,1.3-4.7,3-6.1,5.3
		c-0.5,0.9-0.9,1.9-1,3c0,0.3,0,0.6,0,0.9c0,0.2,0,0.4-0.1,0.6c-0.1,0.2-0.4,0.3-0.7,0.3c-0.5,0.1-3.6,0.4-4.6,0.6
		c-2.2,0.4-4.5,0.9-6.7,1.6c-0.8,0.3-1.6,0.6-2.4,1l-0.1,0.1c-0.3,0.2-0.7,0.4-1,0.6l-0.1,0.1c-0.4,0.2-0.7,0.5-1,0.7
		c-0.2,0.2-0.4,0.4-0.6,0.6c-0.1,0.1-0.2,0.1-0.2,0.2c-0.1,0.1-0.2,0.2-0.3,0.3c-0.4,0.4-0.7,1-1,1.5l-0.1,0.1
		c-0.1,0.2-0.2,0.5-0.3,0.7c-0.1,0.1-0.1,0.3-0.2,0.4c0,0.1,0,0.2-0.1,0.3c-0.1,0.3-0.2,0.6-0.2,0.8c-0.2,0.7-0.2,1.4-0.2,2.1
		c0,0.2,0,0.5,0.1,0.7c0,0.2,0,0.3,0.1,0.4c0,0.1,0,0.3,0.1,0.4c0.3,1.8,1,3.1,1,3.1c0.7,1.5,1.7,3.3,3.1,4.8c0,0,0.2,0.3,0.2,0.7
		c0.1,1.1,0.3,3.5,1.4,6.6c2.6,7.8,7.9,13.5,11.2,16.1c0,0,1.8,1.5,2.5,2.1c1,0.8,2.7,2,2.7,2c0.7,0.4,1,0.6,1.9,0.6
		c1.1,0,1.9-0.5,2.7-1.1c1-0.7,5.1-4.1,5.1-4.1c4.3-3.8,11.2-11.1,11.9-22.2h0c0-0.4,0.2-0.8,0.2-0.8c1.4-1.5,2.4-3.3,3.1-4.8
		C114.9,245.7,116.7,242.3,115.9,239 M90.8,227.6c0-0.5,0.2-1,0.4-1.5c0.5-1.2,1.2-2.3,2.1-3.3c0.3-0.3,0.6-0.6,0.9-0.8
		c0.1-0.1,0.4-0.2,0.6-0.2c0.3,0.1-0.3,1.7-0.4,1.9c-0.4,1.1-0.9,2.1-1.7,3.1c-0.3,0.4-0.7,0.8-1.1,1.1c-0.1,0.1-0.5,0.4-0.7,0.4
		C90.7,228.2,90.8,227.7,90.8,227.6 M110.4,243.2c-0.1,0.2-0.3,0.6-0.4,0.8c0,0-2.9,4.3-2.4,6.7c0.3,1.6,1.2,3.8-1,8.9
		c-1.2,2.8-2.7,6.1-7.2,11.3c0,0-1.5,1.6-2.3,2.2c0,0-3.8,3.2-5.1,3.1c-1.1,0-2.1-0.7-2.8-1.3c-0.6-0.5-2-2.1-2.1-2.2
		c-6.8-8.6-7.1-15.6-5.8-20.5c0.4-1.6,1.5-2.8,2.7-3.6c2.5-1.7,5.8-2.2,6.3-2.3c1.3-0.1,1.9-0.2,3.3-0.2c1,0,2,0,3,0
		c0.6,0,1.1,0,1.7,0.1c0.8,0.1,1.6,0.2,2.3,0.3c0.5,0.1,1,0.2,1.4,0.3c0.4,0,0.8,0,0.8-0.4c0-0.1,0-0.1,0-0.2
		c-0.2-0.4-0.9-1.2-3.7-1.9c-0.6-0.1-1.2-0.2-1.9-0.3c-0.4,0-0.8-0.1-1.3-0.1c-0.3,0-0.5,0-0.8,0l-0.1,0c-0.3,0-0.5,0-0.8,0l-0.1,0
		c-0.3,0-0.6,0-0.9,0c-0.3,0-0.6,0-0.9,0h0c-4.8,0-9,0.5-9,0.5s-7.6,1.1-7.6-4.5c0-5.5,6.9-6.7,11.5-7.4l0.1,0l0,0h0l0,0l0.1,0h0
		c0.2,0,0.5-0.1,0.7-0.1c0.1,0,0.3,0,0.4,0c0.3,0,0.7-0.1,1-0.1c0.7-0.1,1.6-0.1,2.4-0.1c0.1,0,0.4,0,0.4,0c1.8,0,3.5,0.1,5.2,0.3
		c1.3,0.2,2.5,0.4,3.8,0.7C107.4,234.3,113.1,237.1,110.4,243.2"/>
</g>
</svg>
