<svg version="1.1" preserveAspectRatio="none" xmlns="http://www.w3.org/2000/svg" width="500" height="500" viewBox="0 0 500 500"><rect width="100%" height="100%" fill="#121212" fill-opacity="1"/><svg viewBox="1567.4212 1337.3441 156.9227 140" width="333" height="297.08894889012237" x="83.5px" y="101.4555px" xmlns="http://www.w3.org/2000/svg" xmlns:xlink="http://www.w3.org/1999/xlink" preserveAspectRatio="none"><defs></defs><style>.companyName {fill:#F5F5F5;fill-opacity:1;}.icon3 {fill:#00DCFB;fill-opacity:1;}.icon3-str {stroke:#00DCFB;stroke-opacity:1;}.shapeStroke-str {stroke:#F5F5F5;stroke-opacity:1;}</style><g opacity="1" transform="rotate(0 1567.4212 1471.3441)">
<svg width="156.9227" height="6" x="1567.4212" y="1471.3441" version="1.1" preserveAspectRatio="none" viewBox="0 0 156.9227 6">
  <defs><rect x="0" y="0" width="156.9227" height="6" rx="4%" ry="4%" id="id-UPl23ini1706297379593"></rect></defs><use class="companyName shapeStroke-str" style="stroke-width:0;" xlink:href="#id-UPl23ini1706297379593"></use>
</svg>
</g><g opacity="1" transform="rotate(0 1567.4212 1337.3441)">
<svg width="156.9227" height="120" x="1567.4212" y="1337.3441" version="1.1" preserveAspectRatio="none" viewBox="2.8 -28.6 37.4 28.6">
  <g transform="matrix(1 0 0 1 0 0)" class="companyName"><path id="id-D6z1nYkh1" d="M9.20 0L2.80 0L2.80-28.60L8.16-28.60L21.40-19.32L21.60-19.32L34.84-28.60L40.20-28.60L40.20 0L33.80 0L33.80-20.60L24.72-14.52L24.72 0L18.32 0L18.32-14.52L9.20-20.60L9.20 0Z"/></g>
</svg>
</g><g opacity="1" transform="rotate(0 1567.4212 1471.3441)">
<svg width="34.523" height="6" x="1567.4212" y="1471.3441" version="1.1" preserveAspectRatio="none" viewBox="0 0 34.523 6">
  <defs><rect x="0" y="0" width="34.523" height="6" rx="0px" ry="0px" id="id-o0jQam8yd1706297379593"></rect></defs><use class="icon3 shapeStroke-str" style="stroke-width:0;" xlink:href="#id-o0jQam8yd1706297379593"></use>
</svg>
</g></svg></svg>